<svg width="20" height="20" viewBox="0 0 20 20" fill="none" xmlns="http://www.w3.org/2000/svg">
<path fill-rule="evenodd" clip-rule="evenodd" d="M1.86166 3.63083C1.73542 3.78081 1.66634 3.97063 1.66666 4.16667V14.1667C1.66666 14.8297 1.93005 15.4656 2.39889 15.9344C2.86773 16.4033 3.50362 16.6667 4.16666 16.6667H15.8333C16.4964 16.6667 17.1323 16.4033 17.6011 15.9344C18.0699 15.4656 18.3333 14.8297 18.3333 14.1667V4.175C18.3341 4.05082 18.3073 3.92802 18.2549 3.81546C18.2024 3.70291 18.1256 3.60341 18.03 3.52417C17.8819 3.40145 17.6957 3.33399 17.5033 3.33333H2.49999C2.3783 3.33315 2.25805 3.35969 2.14774 3.4111C2.03744 3.46251 1.93978 3.53752 1.86166 3.63083ZM3.33332 6.17833V14.1667C3.33332 14.3877 3.42112 14.5996 3.5774 14.7559C3.73368 14.9122 3.94564 15 4.16666 15H15.8333C16.0543 15 16.2663 14.9122 16.4226 14.7559C16.5789 14.5996 16.6667 14.3877 16.6667 14.1667V6.17833L10.5892 12.2558C10.4329 12.4121 10.221 12.4998 9.99999 12.4998C9.77902 12.4998 9.5671 12.4121 9.41082 12.2558L3.33332 6.17833Z" fill="#EFEFEF"/>
</svg>
