<svg width="20" height="20" viewBox="0 0 20 20" fill="none" xmlns="http://www.w3.org/2000/svg">
<path d="M9.99999 9.58333C9.44746 9.58333 8.91755 9.36384 8.52685 8.97314C8.13615 8.58244 7.91666 8.05254 7.91666 7.5C7.91666 6.94747 8.13615 6.41756 8.52685 6.02686C8.91755 5.63616 9.44746 5.41667 9.99999 5.41667C10.5525 5.41667 11.0824 5.63616 11.4731 6.02686C11.8638 6.41756 12.0833 6.94747 12.0833 7.5C12.0833 7.77359 12.0294 8.0445 11.9247 8.29726C11.82 8.55002 11.6666 8.77968 11.4731 8.97314C11.2797 9.16659 11.05 9.32005 10.7972 9.42475C10.5445 9.52945 10.2736 9.58333 9.99999 9.58333ZM9.99999 1.66667C8.45289 1.66667 6.96916 2.28125 5.8752 3.37521C4.78124 4.46917 4.16666 5.9529 4.16666 7.5C4.16666 11.875 9.99999 18.3333 9.99999 18.3333C9.99999 18.3333 15.8333 11.875 15.8333 7.5C15.8333 5.9529 15.2187 4.46917 14.1248 3.37521C13.0308 2.28125 11.5471 1.66667 9.99999 1.66667Z" fill="#EFEFEF"/>
</svg>
