<svg width="658" height="76" viewBox="0 0 658 76" fill="none" xmlns="http://www.w3.org/2000/svg">
<path d="M657.992 19C657.992 67.7105 -0.495126 -25.5562 -0.495117 7.99999C-0.495108 41.5562 -0.495117 38.1033 -0.495117 38.1033C255.658 41.4527 379.063 74.3018 657.992 38.1033V19Z" fill="#269F02" stroke="#269F02"/>
<path d="M5.46213 57L5.31456 57.4777L5.38891 57.5007L5.46673 57.5L658.005 51.5L658.5 51.4954V51V31.3178H658H657.5C657.5 33.9064 655.229 36.1976 650.423 38.1354C645.666 40.0537 638.651 41.5278 629.667 42.6056C611.711 44.7599 586.036 45.3152 555.196 44.7625C493.525 43.6572 411.288 38.1235 329.036 32.1325C313.756 31.0195 298.475 29.8908 283.326 28.7717C216.935 23.8676 153.069 19.15 102.836 16.7644C71.9904 15.2995 46.268 14.7129 28.2515 15.5045C19.248 15.9 12.141 16.6407 7.27404 17.7973C4.84452 18.3747 2.93488 19.0642 1.62127 19.8909C0.309297 20.7165 -0.5 21.7426 -0.5 23C-0.499996 39.1754 0.866074 47.7329 2.25297 52.2636C2.94696 54.5308 3.65268 55.8116 4.21294 56.5371C4.494 56.901 4.74031 57.1276 4.93224 57.268C5.02816 57.3381 5.10999 57.3864 5.175 57.4193C5.20747 57.4357 5.23561 57.4483 5.25904 57.4577C5.27075 57.4625 5.28126 57.4664 5.29054 57.4697L5.3035 57.4742L5.30927 57.4761L5.31197 57.4769C5.31327 57.4773 5.31456 57.4777 5.46213 57Z" fill="#7FDA34" stroke="#7FDA34"/>
<path d="M658 40.0554C658 78.853 -8.96605e-06 4.77271 0 31.5C8.96605e-06 58.2273 0.000231266 67.7286 4.97754 67.7286C9.95485 67.7286 658 73 658 73V40.0554Z" fill="#F9DF2F"/>
<path d="M658 46.538C658 89.3054 -8.96605e-06 17.076 0 46.5381C8.96605e-06 76.0001 4.97731 76 4.97731 76H658V46.538Z" fill="#1D782B"/>
</svg>
