<svg width="20" height="20" viewBox="0 0 20 20" fill="none" xmlns="http://www.w3.org/2000/svg">
<path d="M13.4157 11.4848C13.4812 10.9448 13.5303 10.4048 13.5303 9.84848C13.5303 9.29212 13.4812 8.75212 13.4157 8.21212H16.1812C16.3121 8.73576 16.3939 9.28394 16.3939 9.84848C16.3939 10.413 16.3121 10.9612 16.1812 11.4848M11.9676 16.0339C12.4585 15.1258 12.8348 14.1439 13.0967 13.1212H15.5103C14.7176 14.4862 13.46 15.5201 11.9676 16.0339ZM11.763 11.4848H7.93393C7.85211 10.9448 7.80302 10.4048 7.80302 9.84848C7.80302 9.29212 7.85211 8.74394 7.93393 8.21212H11.763C11.8367 8.74394 11.8939 9.29212 11.8939 9.84848C11.8939 10.4048 11.8367 10.9448 11.763 11.4848ZM9.84847 16.3612C9.16938 15.3794 8.6212 14.2912 8.28575 13.1212H11.4112C11.0757 14.2912 10.5276 15.3794 9.84847 16.3612ZM6.57575 6.57576H4.18666C4.97117 5.20712 6.22785 4.17152 7.7212 3.66303C7.23029 4.57121 6.86211 5.55303 6.57575 6.57576ZM4.18666 13.1212H6.57575C6.86211 14.1439 7.23029 15.1258 7.7212 16.0339C6.23098 15.5198 4.97608 14.4857 4.18666 13.1212ZM3.51575 11.4848C3.38484 10.9612 3.30302 10.413 3.30302 9.84848C3.30302 9.28394 3.38484 8.73576 3.51575 8.21212H6.2812C6.21575 8.75212 6.16666 9.29212 6.16666 9.84848C6.16666 10.4048 6.21575 10.9448 6.2812 11.4848M9.84847 3.32758C10.5276 4.30939 11.0757 5.40576 11.4112 6.57576H8.28575C8.6212 5.40576 9.16938 4.30939 9.84847 3.32758ZM15.5103 6.57576H13.0967C12.8406 5.56241 12.4614 4.58422 11.9676 3.66303C13.473 4.17849 14.7248 5.21758 15.5103 6.57576ZM9.84847 1.66667C5.32393 1.66667 1.66666 5.34849 1.66666 9.84848C1.66666 12.0184 2.52867 14.0995 4.06306 15.6339C4.82281 16.3937 5.72476 16.9963 6.71743 17.4075C7.71009 17.8187 8.77402 18.0303 9.84847 18.0303C12.0184 18.0303 14.0995 17.1683 15.6339 15.6339C17.1683 14.0995 18.0303 12.0184 18.0303 9.84848C18.0303 8.77403 17.8187 7.7101 17.4075 6.71744C16.9963 5.72477 16.3936 4.82282 15.6339 4.06307C14.8741 3.30331 13.9722 2.70065 12.9795 2.28947C11.9869 1.8783 10.9229 1.66667 9.84847 1.66667Z" fill="#EFEFEF"/>
</svg>
